<svg version="1.1"
      xmlns="http://www.w3.org/2000/svg"
      xmlns:xlink="http://www.w3.org/1999/xlink"  id="snapshot-74771" width="250" height="250" viewBox="0 0 250 250"><desc>This image was made on Patterninja.com</desc><defs>
<!-- image 76489 -->
<g id="transformed-76489" data-image="76489" transform="translate(101.29149519899359, -82.52810183601665) rotate(25, 73.70850480100641, 84.52810183601665)"><g><svg version="1.1" width="147.41700960201283px" height="169.0562036720333px" viewBox="0 0 147.41700960201283 169.0562036720333"><g id="original-76489"><svg xmlns="http://www.w3.org/2000/svg" viewBox="0 0 56 64" xmlns:xlink="http://www.w3.org/1999/xlink" version="1.1" preserveAspectRatio="xMidYMid meet">
  <path fill-rule="evenodd" d="M54 64H4V12h50a2 2 0 0 1 2 2v48a2 2 0 0 1-2 2z" fill="rgba(80, 158, 204, 1)" stroke="none"/>
  <path fill-rule="evenodd" d="M4 20h48v40H4z" fill="rgba(255, 255, 255, 1)" stroke="none"/>
  <path fill-rule="evenodd" d="M4 52h44v2H4v-2zm0 4h44v2H4v-2z" fill="rgba(204, 204, 204, 1)" stroke="none"/>
  <path fill-rule="evenodd" d="M54 50H12V2h42a2 2 0 0 1 2 2v44a2 2 0 0 1-2 2z" fill="rgba(132, 210, 255, 1)" stroke="none"/>
  <path fill-rule="evenodd" d="M4 50v10h8v4H2a2 2 0 0 1-2-2V4a2 2 0 0 1 2-2h10v48H4z" fill="rgba(77, 119, 143, 1)" stroke="none"/>
  <path fill-rule="evenodd" d="M40 0h12v20l-6-4-6 4z" fill="rgba(241, 65, 68, 1)" stroke="none"/>
</svg>
</g></svg></g></g>
<!-- /image 76489 -->
</defs><rect x="0" y="0" width="250" height="250" fill="rgba(145, 197, 186, 1)"></rect><use xlink:href="#transformed-76489" transform="translate(-250, -250)"></use><use xlink:href="#transformed-76489" transform="translate(0, -250)"></use><use xlink:href="#transformed-76489" transform="translate(250, -250)"></use><use xlink:href="#transformed-76489" transform="translate(-250, 0)"></use><use xlink:href="#transformed-76489" transform="translate(0, 0)"></use><use xlink:href="#transformed-76489" transform="translate(250, 0)"></use><use xlink:href="#transformed-76489" transform="translate(-250, 250)"></use><use xlink:href="#transformed-76489" transform="translate(0, 250)"></use><use xlink:href="#transformed-76489" transform="translate(250, 250)"></use></svg>